# xmcd CD database file
#
# Track frame offsets:
#	150
#	10219
#	27188
#	43138
#	58452
#	97845
#	111888
#	124446
#	137147
#	164402
#	180016
#	198884
#
# Disc length: 2731 seconds
#
# Revision: 0
# Processed by: cddbd v1.5.1PL2 Copyright (c) Steve Scherf et al.
# Submitted via: CDex 1.70beta2
#
DISCID=a00aa90c
DTITLE=Tick and Fuzz - Volume 1 - Kindness
DYEAR=2000
DGENRE=Country
TTITLE0=Tick and Fuzz Theme Song
TTITLE1=Kindness is the Word of the Day
TTITLE2=Kindness Makes a Happy Body
TTITLE3=Kind Animals
TTITLE4=The Unkind Dragon
TTITLE5=There's a Golden Rule
TTITLE6=Nice Things to Say (High and Low)
TTITLE7=Rap...A Gift of Nice
TTITLE8=The Lion and The Mouse - Aesop's Fables
TTITLE9=Thankful for My Friends
TTITLE10=Kindness Lullaby
TTITLE11=Tick and Fuzz Farewell
EXTD=YEAR: 2000
EXTT0=
EXTT1=
EXTT2=
EXTT3=
EXTT4=
EXTT5=
EXTT6=
EXTT7=
EXTT8=
EXTT9=
EXTT10=
EXTT11=
PLAYORDER=
